<svg width="22" height="22" viewBox="0 0 22 22" fill="none" xmlns="http://www.w3.org/2000/svg">
<path d="M18.509 21.5962L21.5962 18.509C22.1346 17.9706 22.1346 17.1057 21.5962 16.5673L16.0289 11L21.5962 5.4327C22.1346 4.8943 22.1346 4.02942 21.5962 3.49102L18.509 0.403801C17.9706 -0.1346 17.1057 -0.1346 16.5673 0.403801L11 5.9711L5.4327 0.403801C4.8943 -0.1346 4.02942 -0.1346 3.49102 0.403801L0.403801 3.49102C-0.1346 4.02942 -0.1346 4.8943 0.403801 5.4327L5.9711 11L0.403801 16.5673C-0.1346 17.1057 -0.1346 17.9706 0.403801 18.509L3.49102 21.5962C4.02942 22.1346 4.8943 22.1346 5.4327 21.5962L11 16.0289L16.5673 21.5962C17.1 22.1289 17.9706 22.1289 18.509 21.5962V21.5962Z" fill="white"/>
</svg>
