<svg width="124" height="61" viewBox="0 0 124 61" fill="none" xmlns="http://www.w3.org/2000/svg">
<circle cx="20" cy="31" r="19.5" stroke="#FC6921"/>
<path d="M20 16V31.6694L10 38" stroke="black" stroke-linecap="round" stroke-linejoin="round"/>
<path d="M56.895 18.396V25H53.8066V7.22656H60.606C62.5916 7.22656 64.1663 7.74333 65.3301 8.77686C66.502 9.81038 67.0879 11.1776 67.0879 12.8784C67.0879 14.62 66.5142 15.9749 65.3667 16.9434C64.2274 17.9118 62.6283 18.396 60.5693 18.396H56.895ZM56.895 15.918H60.606C61.7046 15.918 62.5428 15.6616 63.1206 15.1489C63.6984 14.6281 63.9873 13.8794 63.9873 12.9028C63.9873 11.9425 63.6943 11.1776 63.1084 10.6079C62.5225 10.0301 61.7168 9.73307 60.6914 9.7168H56.895V15.918ZM73.0571 25H69.981V7.22656H73.0571V25ZM79.7588 22.5342H89.2559V25H76.0234V22.998L85.2153 9.7168H76.0845V7.22656H88.9629V9.17969L79.7588 22.5342ZM94.8223 22.5342H104.319V25H91.0869V22.998L100.279 9.7168H91.1479V7.22656H104.026V9.17969L94.8223 22.5342ZM117.1 20.8618H110.215L108.775 25H105.564L112.278 7.22656H115.049L121.775 25H118.553L117.1 20.8618ZM111.082 18.3716H116.233L113.658 10.9985L111.082 18.3716Z" fill="black"/>
<path d="M66.6484 38.7168H61.1064V54H58.0425V38.7168H52.5493V36.2266H66.6484V38.7168ZM72.2515 54H69.1753V36.2266H72.2515V54ZM80.0518 36.2266L85.1787 49.8496L90.2935 36.2266H94.2852V54H91.209V48.1406L91.5142 40.3037L86.2651 54H84.0557L78.8188 40.3159L79.124 48.1406V54H76.0479V36.2266H80.0518ZM108.335 46.0654H101.036V51.5342H109.568V54H97.9473V36.2266H109.483V38.7168H101.036V43.624H108.335V46.0654Z" fill="#FC6921"/>
</svg>
