<svg width="56" height="38" viewBox="0 0 56 38" fill="none" xmlns="http://www.w3.org/2000/svg">
<path d="M3.91602 9.7168V15H1.44531V0.78125H6.88477C8.47331 0.78125 9.73307 1.19466 10.6641 2.02148C11.6016 2.84831 12.0703 3.94206 12.0703 5.30273C12.0703 6.69596 11.6113 7.77995 10.6934 8.55469C9.7819 9.32943 8.5026 9.7168 6.85547 9.7168H3.91602ZM3.91602 7.73438H6.88477C7.76367 7.73438 8.43424 7.5293 8.89648 7.11914C9.35872 6.70247 9.58984 6.10352 9.58984 5.32227C9.58984 4.55404 9.35547 3.94206 8.88672 3.48633C8.41797 3.02409 7.77344 2.78646 6.95312 2.77344H3.91602V7.73438ZM16.8457 15H14.3848V0.78125H16.8457V15ZM22.207 13.0273H29.8047V15H19.2188V13.3984L26.5723 2.77344H19.2676V0.78125H29.5703V2.34375L22.207 13.0273ZM34.2578 13.0273H41.8555V15H31.2695V13.3984L38.623 2.77344H31.3184V0.78125H41.6211V2.34375L34.2578 13.0273ZM52.0801 11.6895H46.5723L45.4199 15H42.8516L48.2227 0.78125H50.4395L55.8203 15H53.2422L52.0801 11.6895ZM47.2656 9.69727H51.3867L49.3262 3.79883L47.2656 9.69727Z" fill="black"/>
<path d="M11.7188 25.7734H7.28516V38H4.83398V25.7734H0.439453V23.7812H11.7188V25.7734ZM16.2012 38H13.7402V23.7812H16.2012V38ZM22.4414 23.7812L26.543 34.6797L30.6348 23.7812H33.8281V38H31.3672V33.3125L31.6113 27.043L27.4121 38H25.6445L21.4551 27.0527L21.6992 33.3125V38H19.2383V23.7812H22.4414ZM45.0684 31.6523H39.2285V36.0273H46.0547V38H36.7578V23.7812H45.9863V25.7734H39.2285V29.6992H45.0684V31.6523Z" fill="#FC6921"/>
</svg>
