<svg width="332" height="332" viewBox="0 0 332 332" fill="none" xmlns="http://www.w3.org/2000/svg">
<circle cx="166" cy="166" r="165.25" stroke="#E6E6E6" stroke-width="1.5"/>
<circle cx="113" cy="77" r="22.25" stroke="#E6E6E6" stroke-width="1.5"/>
<circle cx="73" cy="125" r="16.25" stroke="#E6E6E6" stroke-width="1.5"/>
<circle cx="218" cy="62" r="6" fill="#E6E6E6"/>
<circle cx="270" cy="134" r="6" fill="#E6E6E6"/>
<circle cx="182" cy="224" r="6" fill="#E6E6E6"/>
<circle cx="102" cy="194" r="6" fill="#E6E6E6"/>
<circle cx="50" cy="144" r="6" fill="#E6E6E6"/>
<circle cx="154" cy="282" r="6" fill="#E6E6E6"/>
<circle cx="153" cy="195" r="16.25" stroke="#E6E6E6" stroke-width="1.5"/>
<circle cx="247" cy="151" r="16.25" stroke="#E6E6E6" stroke-width="1.5"/>
<circle cx="187" cy="85" r="16.25" stroke="#E6E6E6" stroke-width="1.5"/>
<circle cx="119" cy="241" r="16.25" stroke="#E6E6E6" stroke-width="1.5"/>
<circle cx="165" cy="143" r="22.25" stroke="#E6E6E6" stroke-width="1.5"/>
<circle cx="189" cy="259" r="22.25" stroke="#E6E6E6" stroke-width="1.5"/>
<circle cx="247" cy="201" r="22.25" stroke="#E6E6E6" stroke-width="1.5"/>
<circle cx="67" cy="195" r="22.25" stroke="#E6E6E6" stroke-width="1.5"/>
<circle cx="247" cy="101" r="22.25" stroke="#E6E6E6" stroke-width="1.5"/>
<circle cx="166" cy="166" r="143.25" stroke="#E6E6E6" stroke-width="1.5"/>
<rect x="96.8545" y="137.039" width="12" height="28" rx="5" transform="rotate(34 96.8545 137.039)" fill="#E6E6E6"/>
<rect x="215.657" y="172" width="12" height="28" rx="5" transform="rotate(34 215.657 172)" fill="#E6E6E6"/>
<rect x="82.9129" y="231.933" width="12" height="28" rx="5" transform="rotate(-8 82.9129 231.933)" fill="#E6E6E6"/>
<rect x="196.197" y="136" width="12" height="28" rx="5" transform="rotate(4.5 196.197 136)" fill="#E6E6E6"/>
<rect x="149.845" y="52.0201" width="12" height="28" rx="5" transform="rotate(12 149.845 52.0201)" fill="#E6E6E6"/>
<rect x="208.607" y="233.837" width="12" height="28" rx="5" transform="rotate(-30 208.607 233.837)" fill="#E6E6E6"/>
</svg>
