<svg xmlns="http://www.w3.org/2000/svg" width="20" height="23" fill="none" viewBox="0 0 20 23"><path fill="#000" d="M0 3.77344V2.51562C0 1.91816 0.477679 1.4375 1.07143 1.4375H6.07143L6.49107 0.597461C6.66964 0.229102 7.04018 0 7.44643 0H12.5491C12.9554 0 13.3259 0.229102 13.5089 0.597461L13.9286 1.4375H18.9286C19.5223 1.4375 20 1.91816 20 2.51562V3.77344C20 4.06992 19.7589 4.3125 19.4643 4.3125H0.535714C0.241071 4.3125 0 4.06992 0 3.77344ZM18.5357 6.32051L17.625 20.9785C17.5536 22.115 16.6161 23 15.4866 23H4.51339C3.38393 23 2.44643 22.115 2.375 20.9785L1.46429 6.32051C1.44643 6.01055 1.69196 5.75 2 5.75H18.0045C18.308 5.75 18.5536 6.01055 18.5357 6.32051Z"/></svg>