<svg width="60" height="61" viewBox="0 0 60 61" fill="none" xmlns="http://www.w3.org/2000/svg">
<mask id="path-1-inside-1" fill="white">
<path d="M59.7294 22.9684C57.8471 15.9682 53.4938 9.88629 47.4746 5.8472C41.4554 1.80811 34.1773 0.0850311 26.986 0.996557C19.7947 1.90808 13.1767 5.39256 8.35553 10.8057C3.53441 16.2189 0.836302 23.1946 0.760081 30.443C0.683861 37.6914 3.23469 44.7223 7.94091 50.2356C12.6471 55.749 19.1904 59.3718 26.361 60.4344C33.5315 61.4969 40.8442 59.9273 46.9471 56.0157C53.0499 52.104 57.5301 46.115 59.5591 39.156L55.2449 37.898C53.5197 43.8146 49.7107 48.9065 44.5221 52.2322C39.3334 55.5579 33.1161 56.8924 27.0197 55.989C20.9233 55.0856 15.3602 52.0054 11.3589 47.318C7.35766 42.6305 5.18894 36.6529 5.25374 30.4902C5.31854 24.3276 7.61249 18.3968 11.7114 13.7946C15.8104 9.19229 21.437 6.22978 27.5511 5.45479C33.6651 4.67981 39.853 6.14478 44.9706 9.57883C50.0881 13.0129 53.7893 18.1837 55.3896 24.1353L59.7294 22.9684Z"/>
</mask>
<path d="M59.7294 22.9684C57.8471 15.9682 53.4938 9.88629 47.4746 5.8472C41.4554 1.80811 34.1773 0.0850311 26.986 0.996557C19.7947 1.90808 13.1767 5.39256 8.35553 10.8057C3.53441 16.2189 0.836302 23.1946 0.760081 30.443C0.683861 37.6914 3.23469 44.7223 7.94091 50.2356C12.6471 55.749 19.1904 59.3718 26.361 60.4344C33.5315 61.4969 40.8442 59.9273 46.9471 56.0157C53.0499 52.104 57.5301 46.115 59.5591 39.156L55.2449 37.898C53.5197 43.8146 49.7107 48.9065 44.5221 52.2322C39.3334 55.5579 33.1161 56.8924 27.0197 55.989C20.9233 55.0856 15.3602 52.0054 11.3589 47.318C7.35766 42.6305 5.18894 36.6529 5.25374 30.4902C5.31854 24.3276 7.61249 18.3968 11.7114 13.7946C15.8104 9.19229 21.437 6.22978 27.5511 5.45479C33.6651 4.67981 39.853 6.14478 44.9706 9.57883C50.0881 13.0129 53.7893 18.1837 55.3896 24.1353L59.7294 22.9684Z" stroke="#FC6921" stroke-width="20" mask="url(#path-1-inside-1)"/>
</svg>
